# xmcd
# 
# Track frame offsets:
#     150
#     15521
#     29179
#     48694
#     60464
#     79459
#     97524
#     114681
#     127804
#     142053
#     165453
#     181807
#     196125
#     215272
#     232776
#     235287
#     252213
#     257449
# 
# Disc length: 3467
# 
# Revision: 1
# Processed by: cddbd v1.5.2PL0 Copyright (c) Steve Scherf et al.
# Submitted via: fre:ac v1.0.27
# 
DISCID=e90d8912
DTITLE=Das Dritte Ohr - Negerküsse
DYEAR=1998
DGENRE=Blues
TTITLE0=Boogie bis du brennst
TTITLE1=Süsser Tee
TTITLE2=Dieses Lächeln
TTITLE3=Banken sind so
TTITLE4=Bin ein Fremder hier
TTITLE5=Paradies auf Erden
TTITLE6=Was ist zu tun
TTITLE7=Tut das gut
TTITLE8=Tom will auch einmal gemütlich im sitzen spielen
TTITLE9=Moniko
TTITLE10=Wolffs Blasebalg
TTITLE11=Hüftschwung
TTITLE12=Wir sind wieder wer
TTITLE13=Heimweh
TTITLE14=Regio Regina
TTITLE15=Fernweh
TTITLE16=Wer nun den lieben langen Tag
TTITLE17=Endlich einer der aufräumt
EXTD=
EXTT0=
EXTT1=
EXTT2=
EXTT3=
EXTT4=
EXTT5=
EXTT6=
EXTT7=
EXTT8=
EXTT9=
EXTT10=
EXTT11=
EXTT12=
EXTT13=
EXTT14=
EXTT15=
EXTT16=
EXTT17=
PLAYORDER=
